<?xml version="1.0" standalone="no"?><!DOCTYPE svg PUBLIC "-//W3C//DTD SVG 1.1//EN" "http://www.w3.org/Graphics/SVG/1.1/DTD/svg11.dtd"><svg t="1499240231905" class="icon" style="" viewBox="0 0 1024 1024" version="1.1" xmlns="http://www.w3.org/2000/svg" p-id="1431" xmlns:xlink="http://www.w3.org/1999/xlink" width="200" height="200"><defs><style type="text/css"></style></defs><path d="M1008 572.8c0-217.6-198.4-396.8-454.4-416-9.6-3.2-16-3.2-25.6-3.2h-192V67.2c-3.2-28.8-28.8-48-67.2-25.6-25.6 16-140.8 96-201.6 137.6C41.6 198.4 16 217.6 16 236.8c0 19.2 19.2 32 44.8 48 76.8 51.2 179.2 115.2 201.6 128 48 25.6 70.4 6.4 70.4-16V310.4h198.4c160 12.8 284.8 124.8 284.8 259.2 0 144-140.8 262.4-313.6 262.4H313.6c-54.4 0-108.8 35.2-108.8 80S262.4 992 316.8 992h211.2c6.4 0 16 0 22.4-3.2 256-19.2 457.6-198.4 457.6-416" p-id="1432"></path></svg>